<?xml version="1.0" standalone="no"?><!DOCTYPE svg PUBLIC "-//W3C//DTD SVG 1.1//EN" "http://www.w3.org/Graphics/SVG/1.1/DTD/svg11.dtd"><svg t="1731033516537" class="icon" viewBox="0 0 1024 1024" version="1.1" xmlns="http://www.w3.org/2000/svg" p-id="1886" xmlns:xlink="http://www.w3.org/1999/xlink" width="200" height="200"><path d="M1011.2 680.96c-2.56 0-7.68 0-10.24-2.56-15.36-2.56-30.72-5.12-48.64-5.12 2.56-2.56 2.56-2.56 2.56-5.12 5.12-7.68 2.56-7.68-2.56-12.8-7.68-2.56-15.36-7.68-23.04-10.24-30.72-12.8-64-23.04-97.28-33.28-17.92-5.12-38.4-12.8-56.32-20.48-2.56 0-5.12 0-2.56-5.12 12.8-15.36 20.48-30.72 38.4-43.52 15.36-10.24 15.36-23.04 0-35.84-5.12-2.56-10.24-7.68-15.36-10.24 7.68 0 12.8-5.12 17.92-10.24 2.56-2.56 0-7.68 0-12.8v-2.56c0-2.56 0-5.12 2.56-5.12 5.12-2.56 10.24-7.68 12.8-12.8 2.56-5.12 5.12-10.24 2.56-15.36-2.56-2.56-10.24 0-12.8 0-5.12 2.56-10.24 5.12-17.92 5.12 0-2.56 2.56-5.12 2.56-7.68 5.12-7.68 7.68-15.36 7.68-25.6 0-5.12-2.56-7.68-7.68-7.68h-20.48c-5.12 0-5.12 0-7.68-2.56-2.56-5.12-7.68-7.68-12.8-10.24-10.24-2.56-15.36 0-17.92 10.24-2.56 5.12-2.56 10.24-2.56 15.36-2.56 15.36-7.68 30.72-12.8 48.64-7.68-12.8-17.92-15.36-28.16-23.04-5.12-2.56-5.12-5.12 0-10.24l46.08-46.08c2.56-5.12 7.68-10.24 7.68-15.36 0-17.92-5.12-35.84-15.36-48.64-5.12-5.12-10.24-5.12-15.36 0-5.12 5.12-7.68 12.8-10.24 20.48-7.68 25.6-17.92 46.08-33.28 66.56-2.56 2.56-2.56 5.12-5.12 7.68-2.56 2.56-2.56 5.12-7.68 2.56-10.24-5.12-20.48-7.68-30.72-7.68-12.8 0-20.48 2.56-23.04 17.92-5.12 23.04-7.68 48.64-15.36 71.68-2.56 5.12-2.56 10.24 5.12 12.8 7.68 2.56 12.8 0 15.36-5.12 12.8-17.92 33.28-30.72 48.64-46.08 2.56-2.56 7.68-5.12 12.8-2.56-2.56 5.12-7.68 12.8-5.12 20.48 0 2.56-2.56 2.56-2.56 2.56-12.8 7.68-23.04 17.92-33.28 28.16-12.8 10.24-25.6 20.48-40.96 25.6-5.12 2.56-5.12 2.56-5.12-2.56 0-12.8 0-23.04-2.56-35.84-2.56-15.36-10.24-28.16-15.36-40.96h5.12c10.24-2.56 10.24-2.56 10.24-12.8 0-2.56 0-5.12-2.56-5.12-5.12-2.56-10.24-7.68-15.36-10.24-10.24-5.12-20.48-10.24-33.28-5.12-5.12 2.56-10.24 2.56-15.36 0-28.16-12.8-53.76-12.8-81.92 0-12.8-33.28-35.84-46.08-58.88-38.4 2.56 10.24 7.68 17.92 12.8 25.6l15.36 23.04c2.56 5.12 2.56 7.68-2.56 10.24-5.12 2.56-10.24 7.68-15.36 12.8-5.12 5.12-10.24 12.8-10.24 20.48 0 5.12 2.56 5.12 5.12 2.56 5.12-2.56 10.24-5.12 15.36-10.24 2.56-5.12 7.68-7.68 12.8-10.24 5.12-2.56 7.68-2.56 7.68 2.56 2.56 10.24 5.12 20.48 10.24 28.16 0 2.56 0 5.12-2.56 7.68l-33.28 33.28c-10.24 10.24-20.48 20.48-33.28 28.16-2.56-12.8 0-25.6 2.56-38.4 2.56-15.36 10.24-30.72 10.24-48.64 0-5.12 2.56-12.8-2.56-12.8-7.68-2.56-10.24 5.12-12.8 10.24-2.56 5.12-5.12 5.12-7.68 0-25.6-25.6-51.2-48.64-76.8-69.12-20.48-15.36-40.96-30.72-64-40.96-12.8-5.12-28.16-7.68-43.52-7.68-2.56 0-5.12 0-5.12 5.12 5.12 12.8 7.68 25.6 12.8 35.84 10.24 25.6 28.16 43.52 56.32 48.64 23.04 5.12 46.08 12.8 69.12 23.04l23.04 7.68c5.12 2.56 10.24 5.12 17.92 5.12 10.24 0 12.8 2.56 10.24 12.8-2.56 12.8-7.68 23.04-12.8 35.84-5.12 12.8-10.24 25.6-5.12 38.4 5.12 17.92 2.56 33.28-10.24 46.08l-7.68 7.68c-7.68 10.24-12.8 17.92-15.36 30.72 0 7.68 2.56 15.36 2.56 23.04-40.96-2.56-84.48 2.56-125.44-2.56 7.68-12.8 17.92-20.48 28.16-28.16 17.92-12.8 35.84-23.04 51.2-38.4 2.56-2.56 7.68-5.12 5.12-12.8 0-2.56 0-2.56 2.56-5.12 15.36-10.24 28.16-20.48 43.52-28.16 2.56-2.56 5.12-5.12 2.56-7.68-2.56-5.12-5.12-5.12-10.24-2.56-2.56 0-2.56 2.56-5.12 2.56-10.24 2.56-17.92 7.68-25.6 10.24-25.6 10.24-51.2 23.04-76.8 35.84-15.36 7.68-28.16 12.8-43.52 17.92 10.24-15.36 23.04-28.16 35.84-38.4 30.72-28.16 64-51.2 104.96-61.44 10.24-2.56 15.36-10.24 12.8-20.48-5.12-17.92-17.92-25.6-35.84-20.48-17.92 5.12-33.28 2.56-51.2-2.56-10.24-2.56-23.04-7.68-33.28-10.24-2.56 23.04 7.68 46.08 28.16 61.44 2.56 2.56 2.56 5.12 0 7.68C186.88 558.08 153.6 586.24 122.88 614.4c-10.24 7.68-20.48 12.8-33.28 12.8-10.24 0-17.92 7.68-20.48 15.36-2.56 7.68 0 12.8 5.12 17.92 2.56 5.12 5.12 10.24 5.12 12.8-5.12 2.56-10.24-2.56-12.8 0-10.24 5.12-23.04 5.12-35.84 5.12-7.68 0-15.36 0-23.04 5.12-2.56 2.56-2.56 2.56 0 5.12l15.36 7.68c20.48 5.12 43.52 2.56 64 2.56h112.64c46.08 0 92.16 2.56 140.8 2.56 184.32 0 371.2 2.56 555.52-2.56 38.4 0 76.8-2.56 115.2-5.12 5.12 0 5.12-2.56 7.68-7.68 0-2.56-2.56-2.56-7.68-5.12z m-240.64-133.12c0-2.56 2.56-5.12 7.68-7.68 0 7.68 0 10.24-7.68 7.68z m-15.36-71.68c7.68 10.24 17.92 15.36 28.16 20.48 7.68 2.56 10.24 5.12 7.68 15.36-12.8-12.8-28.16-15.36-46.08-12.8 2.56-7.68 7.68-15.36 10.24-23.04z m5.12 92.16c-2.56 12.8-10.24 23.04-20.48 30.72 0-7.68 2.56-10.24 5.12-12.8 7.68-5.12 10.24-12.8 15.36-17.92z m-23.04-58.88c0-2.56 2.56-2.56 5.12 0 2.56 5.12 7.68 7.68 12.8 5.12 2.56 0 2.56 0 2.56 2.56 0 5.12-2.56 10.24-7.68 12.8-2.56 2.56-2.56 0-2.56-2.56-2.56-5.12-5.12-7.68-10.24-12.8-5.12 0 0-2.56 0-5.12z m-5.12 40.96c-2.56 5.12 0 10.24 5.12 12.8-7.68 2.56-15.36 5.12-20.48 10.24-2.56-7.68 0-12.8 2.56-20.48 0-5.12 5.12-7.68 10.24-7.68 2.56 0 2.56 2.56 2.56 5.12z m-15.36-17.92c0-2.56 2.56-5.12 5.12-7.68 0 5.12-2.56 7.68-5.12 7.68z m2.56-40.96c2.56-2.56 5.12-2.56 7.68-2.56 2.56 0 2.56 5.12 0 7.68 0 5.12-2.56 10.24-5.12 15.36-2.56 2.56-7.68 5.12-10.24 12.8-2.56-15.36 2.56-25.6 7.68-33.28z m-135.68 99.84c2.56-10.24 7.68-17.92 10.24-28.16 0 0 0-2.56 2.56-2.56s2.56 2.56 2.56 2.56c5.12 5.12 7.68 10.24 12.8 15.36-10.24 12.8-20.48 17.92-30.72 28.16 0-7.68 0-12.8 2.56-15.36z m-28.16-61.44c0 17.92-2.56 33.28-7.68 48.64-2.56 7.68-7.68 15.36-12.8 23.04-2.56-2.56-2.56-7.68-2.56-10.24 0-2.56-2.56-5.12-5.12-5.12s-5.12 2.56-5.12 2.56c-2.56 2.56-2.56 5.12-5.12 7.68-5.12-5.12-2.56-10.24 0-12.8 2.56-5.12 5.12-12.8 10.24-17.92 0-2.56 2.56-2.56 2.56-5.12 0-5.12 0-10.24-5.12-10.24-2.56-2.56-7.68 2.56-10.24 2.56-5.12 2.56-7.68 7.68-10.24 12.8-2.56 2.56-2.56 2.56-5.12 0-5.12-5.12-5.12-7.68 0-12.8 7.68-7.68 15.36-17.92 25.6-20.48 2.56 0 2.56-2.56 2.56-5.12 2.56-5.12 2.56-10.24 2.56-15.36 2.56 7.68 10.24 5.12 15.36 5.12 12.8 0 12.8 0 10.24 12.8z m-33.28-30.72c2.56 0 2.56 2.56 2.56 5.12 0 0 0 2.56-2.56 2.56v-7.68c-2.56 0 0 0 0 0z m-71.68-61.44c10.24-7.68 40.96-10.24 53.76-2.56-12.8 15.36-30.72 25.6-46.08 40.96-5.12-10.24-7.68-23.04-10.24-33.28 0-2.56 0-2.56 2.56-5.12z m-94.72 235.52c7.68-5.12 7.68-12.8 7.68-23.04 0-7.68-2.56-15.36 0-23.04 0-5.12 2.56-5.12 5.12-2.56l2.56 2.56c7.68 5.12 10.24 5.12 15.36-2.56 2.56-5.12 2.56-12.8 0-17.92-7.68-17.92-2.56-33.28 10.24-46.08 15.36-15.36 30.72-33.28 48.64-48.64 0 2.56 0 5.12-2.56 7.68-10.24 12.8-23.04 25.6-33.28 38.4-2.56 2.56-5.12 7.68-7.68 10.24-5.12 5.12-5.12 10.24 0 17.92 7.68 10.24 17.92 15.36 30.72 12.8-2.56 5.12-7.68 7.68-10.24 12.8-7.68 7.68-5.12 20.48 5.12 25.6 2.56 0 5.12 2.56 7.68 2.56-5.12 2.56-10.24 0-12.8 0-5.12-2.56-7.68-2.56-12.8-5.12-2.56 0-7.68-2.56-7.68 0 0 5.12-2.56 10.24 5.12 12.8 12.8 5.12 25.6 12.8 38.4 17.92 2.56 2.56 5.12 2.56 10.24 5.12-38.4 2.56-69.12 2.56-99.84 2.56z m99.84-104.96c-5.12 5.12-10.24 12.8-15.36 20.48 0-15.36 0-30.72 5.12-43.52 0-2.56 2.56-7.68 5.12-7.68s5.12 2.56 7.68 5.12c5.12 12.8 5.12 15.36-2.56 25.6z m23.04-84.48c17.92-7.68 33.28-17.92 51.2-25.6 7.68-2.56 10.24-2.56 15.36 5.12 2.56 2.56 2.56 7.68 5.12 15.36-12.8-5.12-25.6-5.12-38.4-2.56-7.68 0-10.24 2.56-5.12 10.24 0 2.56 2.56 2.56 2.56 5.12s2.56 2.56 2.56 5.12c-15.36-7.68-30.72-5.12-46.08 2.56 5.12-7.68 7.68-10.24 12.8-15.36z m-2.56 99.84c0 5.12-2.56 5.12-7.68 7.68 0-5.12 0-7.68 7.68-7.68 0-2.56 0 0 0 0z m0-53.76c0-2.56-5.12-7.68-2.56-10.24 2.56-2.56 7.68-5.12 12.8-7.68 2.56 0 5.12 0 5.12 5.12 0 7.68-5.12 12.8-12.8 17.92-2.56-2.56-2.56-5.12-2.56-5.12z m17.92 94.72c5.12-7.68 5.12-7.68 12.8 0s7.68 7.68-2.56 12.8c-7.68 2.56-15.36 7.68-25.6 10.24 2.56-10.24 10.24-15.36 15.36-23.04z m2.56 46.08c35.84-5.12 53.76-30.72 79.36-53.76v23.04c2.56 17.92 15.36 28.16 33.28 28.16 2.56 0 5.12 2.56 5.12-2.56 2.56-20.48 12.8-35.84 23.04-53.76l7.68-15.36c7.68 7.68 7.68 15.36 10.24 25.6 0 10.24 2.56 17.92 2.56 28.16 0 7.68 2.56 15.36 7.68 23.04-58.88-2.56-112.64 2.56-168.96-2.56z m174.08-64c-10.24-10.24-12.8-15.36-12.8-23.04 12.8 7.68 17.92 15.36 12.8 23.04z m15.36-71.68c0 2.56-2.56 2.56-2.56 5.12-15.36 7.68-28.16 15.36-40.96 28.16-5.12 5.12-10.24 7.68-17.92 5.12 5.12-15.36 15.36-25.6 25.6-33.28 10.24-7.68 20.48-12.8 30.72-20.48 5.12-2.56 5.12 0 5.12 2.56v12.8z m25.6 94.72c-5.12 12.8-7.68 25.6-5.12 38.4 0 2.56 0 5.12-2.56 5.12h-15.36c7.68-17.92 12.8-38.4 17.92-56.32 0-2.56 0-5.12 5.12-2.56h10.24c-2.56 5.12-5.12 10.24-10.24 15.36z m12.8 43.52c2.56-10.24 7.68-20.48 15.36-28.16 7.68-10.24 12.8-20.48 20.48-30.72 2.56-2.56 2.56-2.56 7.68-2.56 10.24 5.12 20.48 15.36 28.16 23.04 10.24 12.8 20.48 25.6 33.28 35.84-35.84 5.12-69.12 2.56-104.96 2.56z" fill="" p-id="1887"></path></svg>